<svg width="278" height="278" viewBox="0 0 278 278" fill="none" xmlns="http://www.w3.org/2000/svg">
<g clip-path="url(#clip0_1_41)">
<path d="M254.833 139C254.833 75.027 202.973 23.1667 139 23.1667C75.027 23.1667 23.1667 75.027 23.1667 139C23.1667 199.944 70.233 249.896 130 254.489M254.833 139C254.833 143.739 254.549 148.411 253.996 153L254.833 139ZM139 69.5V139L92.6667 162.167" stroke="white" stroke-width="10" stroke-linecap="round" stroke-linejoin="round"/>
<path d="M233 273H243C245.652 273 248.196 271.946 250.071 270.071C251.946 268.196 253 265.652 253 263V198L228 173H183C180.348 173 177.804 174.054 175.929 175.929C174.054 177.804 173 180.348 173 183V198M223 173V193C223 195.652 224.054 198.196 225.929 200.071C227.804 201.946 230.348 203 233 203H253M200.5 250.5L193 244.25V233M223 243C223 259.569 209.569 273 193 273C176.431 273 163 259.569 163 243C163 226.431 176.431 213 193 213C209.569 213 223 226.431 223 243Z" stroke="white" stroke-width="6" stroke-linecap="round" stroke-linejoin="round"/>
</g>
<defs>
<clipPath id="clip0_1_41">
<rect width="278" height="278" fill="white"/>
</clipPath>
</defs>
</svg>
